<svg width="20" height="21" viewBox="0 0 20 21" fill="none" xmlns="http://www.w3.org/2000/svg">
<path d="M9.60913 0.0761719C9.41373 0.177734 9.26914 0.341797 9.1988 0.541016C9.148 0.689453 9.14018 1.45508 9.14018 7.16211V13.6113L7.90137 12.373C7.21749 11.6934 6.60395 11.1113 6.54142 11.0801C6.11546 10.8691 5.59571 11.0371 5.38468 11.4551C5.28307 11.6504 5.27526 12.002 5.36514 12.1934C5.40031 12.2676 6.12718 13.0215 6.98301 13.873C8.50319 15.3887 8.54227 15.4199 8.86663 15.5762C9.21443 15.748 9.66775 15.8574 9.99992 15.8574C10.3321 15.8574 10.7854 15.748 11.1332 15.5762C11.4576 15.4199 11.4966 15.3887 13.0207 13.8691C14.451 12.4434 14.58 12.3066 14.6386 12.123C14.8496 11.4512 14.24 10.8613 13.5405 11.0605C13.4076 11.0996 13.1771 11.3066 12.1219 12.3574L10.8597 13.6074V7.16992C10.8597 2.45898 10.8479 0.689453 10.8167 0.580078C10.7581 0.384766 10.5744 0.169922 10.3868 0.0761719C10.1875 -0.0253906 9.80062 -0.0253906 9.60913 0.0761719Z" fill="#932DED"/>
<path d="M0.437379 13.416C0.312325 13.4785 0.198996 13.5762 0.128654 13.6777L0.0153242 13.8379L0.0036005 15.8652C-0.00812324 18.1465 -0.00812324 18.127 0.281062 18.6895C0.589787 19.2871 1.22678 19.7871 1.87549 19.9395C2.25065 20.0254 17.7455 20.0254 18.1207 19.9395C18.8124 19.7754 19.4455 19.2637 19.762 18.6113C20.0043 18.1152 20.0082 18.0957 19.9965 15.8652L19.9847 13.8379L19.8714 13.6777C19.5861 13.2637 18.9492 13.2012 18.5857 13.5449C18.3356 13.7793 18.3434 13.7012 18.3239 15.7988L18.3043 17.7129L18.1949 17.8965C18.1246 18.0176 18.023 18.1191 17.9018 18.1895L17.7182 18.2988H10H2.28191L2.09824 18.1895C1.9771 18.1191 1.87549 18.0176 1.80515 17.8965L1.69573 17.7129L1.67619 15.7988C1.65665 13.7012 1.66446 13.7793 1.41436 13.5449C1.16034 13.2988 0.773459 13.252 0.437379 13.416Z" fill="#932DED"/>
</svg>
