<svg width="178" height="100" viewBox="0 0 178 100" fill="none" xmlns="http://www.w3.org/2000/svg">
<path d="M12.633 58.7027V72.7501H8.95974V44.4938H12.633V56.8458H29.5464V44.4938H33.2197V72.7501H29.5464V58.7027H12.633ZM42.9003 58.622C42.9003 57.088 43.1829 55.4599 43.748 53.7377C44.34 52.0154 45.255 50.4411 46.4929 49.0148C47.7308 47.5617 49.3051 46.3641 51.2157 45.4223C53.1264 44.4804 55.4138 44.0094 58.0779 44.0094C60.769 44.0094 63.0968 44.4938 65.0613 45.4626C67.0527 46.4045 68.6942 47.602 69.9859 49.0552C71.2776 50.5084 72.233 52.0961 72.8519 53.8184C73.4709 55.5138 73.7803 57.115 73.7803 58.622C73.7803 59.6176 73.6323 60.6672 73.3363 61.7705C73.0672 62.8738 72.6501 63.9772 72.085 65.0805C71.5467 66.1569 70.8471 67.193 69.9859 68.1887C69.1248 69.1575 68.1022 70.0186 66.9181 70.7721C65.7609 71.5256 64.4423 72.1311 62.9622 72.5886C61.5091 73.0192 59.881 73.2345 58.0779 73.2345C55.4138 73.2345 53.1264 72.7635 51.2157 71.8216C49.3051 70.8529 47.7308 69.6419 46.4929 68.1887C45.255 66.7355 44.34 65.1612 43.748 63.4659C43.1829 61.7436 42.9003 60.1289 42.9003 58.622ZM46.8562 58.622C46.8562 60.5057 47.1387 62.2414 47.7039 63.8292C48.2959 65.39 49.0898 66.7355 50.0855 67.8658C51.1081 68.996 52.3056 69.8841 53.678 70.5299C55.0505 71.1489 56.544 71.4583 58.1587 71.4583C59.7464 71.4583 61.2399 71.1489 62.6393 70.5299C64.0656 69.8841 65.3035 68.996 66.353 67.8658C67.4294 66.7355 68.2771 65.39 68.896 63.8292C69.515 62.2414 69.8245 60.5057 69.8245 58.622C69.8245 56.7382 69.515 55.0159 68.896 53.4551C68.2771 51.8674 67.4294 50.5084 66.353 49.3781C65.3035 48.2479 64.0656 47.3733 62.6393 46.7543C61.2399 46.1085 59.7464 45.7856 58.1587 45.7856C56.544 45.7856 55.0505 46.1085 53.678 46.7543C52.3056 47.3733 51.1081 48.2479 50.0855 49.3781C49.0898 50.5084 48.2959 51.8674 47.7039 53.4551C47.1387 55.0159 46.8562 56.7382 46.8562 58.622ZM93.9324 72.7501H90.2591V46.714H79.441V44.4938H104.751V46.714H93.9324V72.7501ZM122.35 44.0094C124.395 44.0094 126.306 44.3189 128.082 44.9379C129.885 45.5568 131.446 46.4718 132.764 47.6828C134.11 48.8668 135.159 50.3469 135.913 52.123C136.693 53.8722 137.083 55.8905 137.083 58.1779C137.083 59.2274 136.962 60.3308 136.72 61.4879C136.478 62.6451 136.088 63.7753 135.549 64.8787C135.038 65.982 134.379 67.045 133.572 68.0676C132.764 69.0902 131.809 69.9783 130.706 70.7318C129.602 71.4853 128.337 72.0907 126.911 72.5482C125.485 73.0057 123.884 73.2345 122.108 73.2345C120.897 73.2345 119.686 73.1268 118.475 72.9115C117.291 72.6962 116.147 72.3599 115.044 71.9024C113.967 71.4449 112.958 70.8663 112.016 70.1666C111.074 69.467 110.267 68.6327 109.594 67.6639L111.653 65.686C112.164 66.4933 112.756 67.2468 113.429 67.9465C114.129 68.6462 114.896 69.2651 115.73 69.8033C116.591 70.3146 117.519 70.7183 118.515 71.0143C119.538 71.3103 120.641 71.4583 121.825 71.4583C123.601 71.4583 125.175 71.1085 126.548 70.4088C127.947 69.7092 129.118 68.7807 130.06 67.6236C131.028 66.4395 131.769 65.094 132.28 63.587C132.791 62.0531 133.047 60.4788 133.047 58.8641V58.6623H119.605V56.8458H133.047V56.6844C133.047 55.3927 132.818 54.101 132.361 52.8092C131.903 51.5175 131.203 50.3469 130.262 49.2974C129.347 48.2479 128.203 47.4002 126.83 46.7543C125.458 46.1085 123.843 45.7856 121.987 45.7856C120.802 45.7856 119.686 45.9336 118.636 46.2296C117.614 46.5256 116.672 46.9427 115.811 47.4809C114.949 47.9922 114.169 48.5977 113.469 49.2974C112.77 49.9971 112.164 50.7506 111.653 51.5579L109.594 49.58C110.967 47.6424 112.77 46.2296 115.003 45.3415C117.264 44.4535 119.713 44.0094 122.35 44.0094ZM171.454 67.5428L172.665 68.6327C172.316 69.0364 171.804 69.5073 171.132 70.0455C170.459 70.5838 169.611 71.0951 168.588 71.5794C167.593 72.0369 166.409 72.4271 165.036 72.7501C163.691 73.073 162.157 73.2345 160.435 73.2345C157.717 73.2345 155.375 72.8173 153.411 71.9831C151.446 71.122 149.832 70.0052 148.567 68.6327C147.302 67.2334 146.36 65.6456 145.741 63.8695C145.149 62.0665 144.853 60.2231 144.853 58.3394C144.853 56.1596 145.23 54.1951 145.983 52.4459C146.737 50.6698 147.8 49.1628 149.172 47.925C150.545 46.6601 152.186 45.6914 154.097 45.0186C156.035 44.3458 158.174 44.0094 160.515 44.0094C162.13 44.0094 163.57 44.1709 164.834 44.4938C166.099 44.8168 167.203 45.2608 168.144 45.8259C169.086 46.391 169.867 47.0638 170.486 47.8442C171.132 48.6246 171.656 49.4723 172.06 50.3873H169.073C168.884 49.8222 168.548 49.2705 168.064 48.7323C167.606 48.1671 167.001 47.6693 166.247 47.2387C165.521 46.8082 164.673 46.4583 163.704 46.1892C162.762 45.9201 161.713 45.7856 160.556 45.7856C158.86 45.7856 157.286 46.095 155.833 46.714C154.407 47.3329 153.169 48.1941 152.119 49.2974C151.07 50.4007 150.249 51.7194 149.657 53.2533C149.092 54.7603 148.809 56.4287 148.809 58.2587C148.809 59.9809 149.078 61.6359 149.616 63.2237C150.182 64.8114 151.002 66.2108 152.079 67.4217C153.155 68.6327 154.501 69.6015 156.115 70.3281C157.73 71.0547 159.587 71.418 161.686 71.418C165.453 71.418 168.71 70.1263 171.454 67.5428Z" fill="#9A3AEF"/>
<path d="M9.3963 83.8437V86.7501H8.6363V80.9039H9.3963V83.4595H12.8956V80.9039H13.6556V86.7501H12.8956V83.8437H9.3963ZM16.8611 82.4824C17.2676 82.4824 17.5821 82.5409 17.8048 82.6578C18.0276 82.7691 18.189 82.9167 18.2892 83.1004C18.395 83.2841 18.4563 83.4957 18.473 83.7351C18.4897 83.9745 18.498 84.2195 18.498 84.4701V86.7501H17.8216V86.3408C17.6601 86.4967 17.4541 86.622 17.2035 86.7167C16.953 86.8057 16.7024 86.8503 16.4519 86.8503C16.2125 86.8503 16.0009 86.8085 15.8172 86.725C15.6334 86.6415 15.4803 86.5329 15.3578 86.3993C15.2353 86.2657 15.1435 86.1153 15.0822 85.9483C15.021 85.7813 14.9904 85.6115 14.9904 85.4389C14.9904 85.2607 15.0238 85.0825 15.0906 84.9044C15.1574 84.7262 15.2576 84.5675 15.3912 84.4283C15.5249 84.2836 15.6891 84.1666 15.884 84.0776C16.0789 83.9885 16.3016 83.9439 16.5521 83.9439C16.8027 83.9439 17.0393 83.994 17.262 84.0943C17.4903 84.1889 17.6768 84.3253 17.8216 84.5035V84.1444C17.8216 83.6878 17.752 83.3482 17.6128 83.1255C17.4791 82.9028 17.2314 82.7914 16.8695 82.7914C16.7136 82.7914 16.5772 82.8109 16.4602 82.8499C16.3433 82.8888 16.2375 82.9445 16.1429 83.0169C16.0538 83.0837 15.9703 83.17 15.8923 83.2758C15.8144 83.376 15.7364 83.4902 15.6585 83.6182L15.2242 83.1839C15.3022 83.1004 15.3829 83.0169 15.4664 82.9334C15.5555 82.8499 15.6613 82.7747 15.7838 82.7079C15.9118 82.6411 16.0622 82.5882 16.2347 82.5492C16.4073 82.5047 16.6161 82.4824 16.8611 82.4824ZM17.8216 85.0964C17.7937 85.0296 17.752 84.9517 17.6963 84.8626C17.6462 84.7735 17.5794 84.6872 17.4958 84.6037C17.4123 84.5202 17.3121 84.4506 17.1952 84.3949C17.0783 84.3337 16.9391 84.303 16.7776 84.303C16.6161 84.303 16.4686 84.3365 16.335 84.4033C16.2013 84.4645 16.0872 84.548 15.9926 84.6538C15.9035 84.754 15.8339 84.8737 15.7838 85.0129C15.7337 85.1521 15.7086 85.2969 15.7086 85.4472C15.7086 85.6254 15.7392 85.7813 15.8005 85.9149C15.8673 86.043 15.9508 86.1543 16.051 86.249C16.1512 86.338 16.2626 86.4049 16.3851 86.4494C16.5076 86.4939 16.6245 86.5162 16.7358 86.5162C16.8416 86.5162 16.9474 86.4967 17.0532 86.4578C17.1646 86.4188 17.2676 86.3659 17.3622 86.2991C17.4624 86.2267 17.5515 86.1432 17.6295 86.0485C17.7074 85.9539 17.7714 85.8509 17.8216 85.7395V85.0964ZM20.5445 86.416H22.5238V82.5743H23.2337V86.416H23.9854V87.627H23.4007V86.7501H19.8346V82.5743H20.5445V86.416ZM25.4462 86.2573L27.5758 82.5743H28.411V86.7501H27.7011V83.0921L25.5714 86.7501H24.7363V82.5743H25.4462V86.2573ZM33.8196 84.6705C33.8196 84.96 33.7694 85.2384 33.6692 85.5057C33.569 85.7674 33.4242 85.9984 33.2349 86.1989C33.0512 86.3993 32.8257 86.558 32.5585 86.6749C32.2968 86.7918 32.0017 86.8503 31.6732 86.8503C31.3391 86.8503 31.0357 86.7918 30.7629 86.6749C30.4956 86.5524 30.2673 86.3909 30.078 86.1905C29.8943 85.9901 29.7495 85.759 29.6438 85.4973C29.5435 85.2301 29.4934 84.9545 29.4934 84.6705C29.4934 84.381 29.5435 84.1054 29.6438 83.8437C29.7495 83.5765 29.8943 83.3426 30.078 83.1422C30.2673 82.9417 30.4956 82.7831 30.7629 82.6661C31.0357 82.5436 31.3391 82.4824 31.6732 82.4824C32.0017 82.4824 32.2968 82.5436 32.5585 82.6661C32.8257 82.7831 33.0512 82.9417 33.2349 83.1422C33.4242 83.3426 33.569 83.5765 33.6692 83.8437C33.7694 84.1054 33.8196 84.381 33.8196 84.6705ZM33.0261 84.6705C33.0261 84.2808 32.9844 83.9662 32.9009 83.7268C32.8174 83.4818 32.7088 83.2925 32.5752 83.1589C32.4415 83.0253 32.294 82.9362 32.1325 82.8916C31.9711 82.8415 31.8152 82.8165 31.6648 82.8165C31.5145 82.8165 31.3586 82.8415 31.1972 82.8916C31.0357 82.9362 30.8854 83.0253 30.7462 83.1589C30.6125 83.2925 30.5012 83.4818 30.4121 83.7268C30.3286 83.9662 30.2868 84.2808 30.2868 84.6705C30.2868 85.0547 30.3286 85.3693 30.4121 85.6142C30.5012 85.8537 30.6125 86.0402 30.7462 86.1738C30.8854 86.3074 31.0357 86.3993 31.1972 86.4494C31.3586 86.4939 31.5145 86.5162 31.6648 86.5162C31.8152 86.5162 31.9711 86.4939 32.1325 86.4494C32.294 86.3993 32.4415 86.3074 32.5752 86.1738C32.7088 86.0402 32.8174 85.8537 32.9009 85.6142C32.9844 85.3693 33.0261 85.0547 33.0261 84.6705ZM35.6165 84.754V86.7501H34.9066V82.5743H35.6165V84.4701H37.7295V82.5743H38.4394V86.7501H37.7295V84.754H35.6165ZM41.3124 82.4824C41.7188 82.4824 42.0334 82.5409 42.2561 82.6578C42.4788 82.7691 42.6403 82.9167 42.7405 83.1004C42.8463 83.2841 42.9075 83.4957 42.9242 83.7351C42.9409 83.9745 42.9493 84.2195 42.9493 84.4701V86.7501H42.2728V86.3408C42.1113 86.4967 41.9053 86.622 41.6548 86.7167C41.4042 86.8057 41.1537 86.8503 40.9031 86.8503C40.6637 86.8503 40.4522 86.8085 40.2684 86.725C40.0847 86.6415 39.9316 86.5329 39.8091 86.3993C39.6866 86.2657 39.5947 86.1153 39.5335 85.9483C39.4722 85.7813 39.4416 85.6115 39.4416 85.4389C39.4416 85.2607 39.475 85.0825 39.5418 84.9044C39.6086 84.7262 39.7089 84.5675 39.8425 84.4283C39.9761 84.2836 40.1404 84.1666 40.3352 84.0776C40.5301 83.9885 40.7528 83.9439 41.0034 83.9439C41.2539 83.9439 41.4905 83.994 41.7132 84.0943C41.9415 84.1889 42.128 84.3253 42.2728 84.5035V84.1444C42.2728 83.6878 42.2032 83.3482 42.064 83.1255C41.9304 82.9028 41.6826 82.7914 41.3207 82.7914C41.1648 82.7914 41.0284 82.8109 40.9115 82.8499C40.7946 82.8888 40.6888 82.9445 40.5941 83.0169C40.505 83.0837 40.4215 83.17 40.3436 83.2758C40.2656 83.376 40.1877 83.4902 40.1097 83.6182L39.6755 83.1839C39.7534 83.1004 39.8341 83.0169 39.9176 82.9334C40.0067 82.8499 40.1125 82.7747 40.235 82.7079C40.3631 82.6411 40.5134 82.5882 40.686 82.5492C40.8586 82.5047 41.0674 82.4824 41.3124 82.4824ZM42.2728 85.0964C42.245 85.0296 42.2032 84.9517 42.1475 84.8626C42.0974 84.7735 42.0306 84.6872 41.9471 84.6037C41.8636 84.5202 41.7634 84.4506 41.6464 84.3949C41.5295 84.3337 41.3903 84.303 41.2288 84.303C41.0674 84.303 40.9198 84.3365 40.7862 84.4033C40.6526 84.4645 40.5385 84.548 40.4438 84.6538C40.3547 84.754 40.2851 84.8737 40.235 85.0129C40.1849 85.1521 40.1598 85.2969 40.1598 85.4472C40.1598 85.6254 40.1905 85.7813 40.2517 85.9149C40.3185 86.043 40.402 86.1543 40.5023 86.249C40.6025 86.338 40.7138 86.4049 40.8363 86.4494C40.9588 86.4939 41.0757 86.5162 41.1871 86.5162C41.2929 86.5162 41.3987 86.4967 41.5045 86.4578C41.6158 86.4188 41.7188 86.3659 41.8135 86.2991C41.9137 86.2267 42.0028 86.1432 42.0807 86.0485C42.1587 85.9539 42.2227 85.8509 42.2728 85.7395V85.0964ZM46.6828 82.5743L48.3781 86.7501H47.6265L46.2902 83.4011H46.2401L45.2797 85.8147C45.2018 86.0151 45.1266 86.1822 45.0542 86.3158C44.9874 86.4438 44.9178 86.5496 44.8454 86.6331C44.773 86.7111 44.6951 86.764 44.6116 86.7918C44.5281 86.8252 44.4334 86.8419 44.3276 86.8419C44.0938 86.8419 43.9128 86.7807 43.7848 86.6582L43.9184 86.2156C43.9685 86.2601 44.0353 86.3046 44.1188 86.3492C44.2023 86.3937 44.2831 86.416 44.361 86.416C44.4278 86.416 44.4891 86.3937 44.5448 86.3492C44.606 86.2991 44.6589 86.2378 44.7034 86.1654C44.748 86.0931 44.787 86.0179 44.8204 85.94C44.8538 85.8564 44.8844 85.7841 44.9122 85.7228L46.1817 82.5743H46.6828ZM49.212 82.5743H49.9219V84.4701H50.9241C51.0577 84.4701 51.2219 84.4784 51.4168 84.4951C51.6117 84.5118 51.7982 84.5592 51.9764 84.6371C52.1545 84.7095 52.3049 84.8236 52.4274 84.9795C52.5554 85.1354 52.6194 85.3553 52.6194 85.6393C52.6194 85.8119 52.5833 85.9678 52.5109 86.107C52.4441 86.2406 52.355 86.3575 52.2436 86.4578C52.1323 86.5524 52.0014 86.6248 51.8511 86.6749C51.7063 86.725 51.5588 86.7501 51.4085 86.7501H49.212V82.5743ZM49.9219 86.416H51.0326C51.2498 86.416 51.4391 86.3548 51.6005 86.2323C51.7676 86.1042 51.8511 85.9093 51.8511 85.6477C51.8511 85.4305 51.8093 85.2635 51.7258 85.1466C51.6423 85.0241 51.5449 84.935 51.4335 84.8793C51.3277 84.8181 51.2219 84.7819 51.1162 84.7707C51.0104 84.7596 50.9324 84.754 50.8823 84.754H49.9219V86.416ZM54.4158 84.754V86.7501H53.7059V82.5743H54.4158V84.4701H56.5287V82.5743H57.2386V86.7501H56.5287V84.754H54.4158ZM62.6505 84.6705C62.6505 84.96 62.6004 85.2384 62.5002 85.5057C62.3999 85.7674 62.2552 85.9984 62.0659 86.1989C61.8821 86.3993 61.6566 86.558 61.3894 86.6749C61.1277 86.7918 60.8326 86.8503 60.5041 86.8503C60.1701 86.8503 59.8666 86.7918 59.5938 86.6749C59.3266 86.5524 59.0983 86.3909 58.909 86.1905C58.7252 85.9901 58.5805 85.759 58.4747 85.4973C58.3745 85.2301 58.3244 84.9545 58.3244 84.6705C58.3244 84.381 58.3745 84.1054 58.4747 83.8437C58.5805 83.5765 58.7252 83.3426 58.909 83.1422C59.0983 82.9417 59.3266 82.7831 59.5938 82.6661C59.8666 82.5436 60.1701 82.4824 60.5041 82.4824C60.8326 82.4824 61.1277 82.5436 61.3894 82.6661C61.6566 82.7831 61.8821 82.9417 62.0659 83.1422C62.2552 83.3426 62.3999 83.5765 62.5002 83.8437C62.6004 84.1054 62.6505 84.381 62.6505 84.6705ZM61.8571 84.6705C61.8571 84.2808 61.8153 83.9662 61.7318 83.7268C61.6483 83.4818 61.5397 83.2925 61.4061 83.1589C61.2725 83.0253 61.1249 82.9362 60.9635 82.8916C60.802 82.8415 60.6461 82.8165 60.4958 82.8165C60.3454 82.8165 60.1896 82.8415 60.0281 82.8916C59.8666 82.9362 59.7163 83.0253 59.5771 83.1589C59.4435 83.2925 59.3321 83.4818 59.243 83.7268C59.1595 83.9662 59.1178 84.2808 59.1178 84.6705C59.1178 85.0547 59.1595 85.3693 59.243 85.6142C59.3321 85.8537 59.4435 86.0402 59.5771 86.1738C59.7163 86.3074 59.8666 86.3993 60.0281 86.4494C60.1896 86.4939 60.3454 86.5162 60.4958 86.5162C60.6461 86.5162 60.802 86.4939 60.9635 86.4494C61.1249 86.3993 61.2725 86.3074 61.4061 86.1738C61.5397 86.0402 61.6483 85.8537 61.7318 85.6142C61.8153 85.3693 61.8571 85.0547 61.8571 84.6705ZM67.4457 84.8459H64.2721C64.2721 85.1855 64.3222 85.4639 64.4224 85.6811C64.5226 85.8982 64.6479 86.068 64.7982 86.1905C64.9485 86.313 65.11 86.3993 65.2826 86.4494C65.4608 86.4939 65.6278 86.5162 65.7837 86.5162C65.9229 86.5162 66.0482 86.5023 66.1595 86.4745C66.2765 86.4411 66.3878 86.3965 66.4936 86.3408C66.5994 86.2852 66.7024 86.2156 66.8026 86.132C66.9084 86.0485 67.0197 85.9567 67.1367 85.8564L67.4039 86.1237C67.1812 86.3575 66.9195 86.5385 66.6189 86.6665C66.3182 86.789 65.9897 86.8503 65.6334 86.8503C65.2659 86.8503 64.9458 86.789 64.6729 86.6665C64.4057 86.5385 64.183 86.3715 64.0048 86.1654C63.8322 85.9539 63.7014 85.7172 63.6123 85.4556C63.5288 85.1883 63.487 84.9155 63.487 84.6371C63.487 84.303 63.5371 84.0052 63.6373 83.7435C63.7376 83.4762 63.8768 83.2507 64.0549 83.067C64.2331 82.8777 64.4419 82.7357 64.6813 82.6411C64.9207 82.5409 65.1824 82.4907 65.4663 82.4907C65.7336 82.4907 65.9869 82.5353 66.2263 82.6244C66.4658 82.7135 66.6745 82.8471 66.8527 83.0253C67.0364 83.2034 67.1812 83.4289 67.287 83.7017C67.3928 83.9745 67.4457 84.2975 67.4457 84.6705V84.8459ZM64.2721 84.5118H66.7191C66.7191 83.9718 66.6077 83.5486 66.385 83.2424C66.1679 82.9306 65.8617 82.7747 65.4663 82.7747C65.2603 82.7747 65.0822 82.8248 64.9318 82.925C64.7815 83.0197 64.6562 83.1477 64.556 83.3092C64.4614 83.4707 64.389 83.6572 64.3389 83.8688C64.2943 84.0748 64.2721 84.2891 64.2721 84.5118ZM71.2025 83.827C71.2025 83.5096 71.2609 83.1728 71.3778 82.8165C71.5003 82.4601 71.6896 82.1344 71.9458 81.8393C72.2019 81.5387 72.5276 81.2909 72.9229 81.096C73.3182 80.9012 73.7915 80.8037 74.3427 80.8037C74.8994 80.8037 75.381 80.9039 75.7875 81.1044C76.1995 81.2993 76.5391 81.547 76.8064 81.8477C77.0736 82.1483 77.2713 82.4768 77.3993 82.8332C77.5274 83.1839 77.5914 83.5152 77.5914 83.827C77.5914 84.033 77.5608 84.2502 77.4996 84.4784C77.4439 84.7067 77.3576 84.935 77.2407 85.1633C77.1293 85.386 76.9845 85.6003 76.8064 85.8063C76.6282 86.0068 76.4166 86.1849 76.1717 86.3408C75.9322 86.4967 75.6594 86.622 75.3532 86.7167C75.0525 86.8057 74.7157 86.8503 74.3427 86.8503C73.7915 86.8503 73.3182 86.7528 72.9229 86.558C72.5276 86.3575 72.2019 86.107 71.9458 85.8063C71.6896 85.5057 71.5003 85.18 71.3778 84.8292C71.2609 84.4729 71.2025 84.1388 71.2025 83.827ZM72.0209 83.827C72.0209 84.2167 72.0794 84.5759 72.1963 84.9044C72.3188 85.2273 72.483 85.5057 72.689 85.7395C72.9006 85.9734 73.1484 86.1571 73.4323 86.2907C73.7163 86.4188 74.0253 86.4828 74.3594 86.4828C74.6879 86.4828 74.9969 86.4188 75.2864 86.2907C75.5815 86.1571 75.8376 85.9734 76.0547 85.7395C76.2774 85.5057 76.4528 85.2273 76.5809 84.9044C76.7089 84.5759 76.773 84.2167 76.773 83.827C76.773 83.4373 76.7089 83.0809 76.5809 82.758C76.4528 82.4295 76.2774 82.1483 76.0547 81.9145C75.8376 81.6806 75.5815 81.4997 75.2864 81.3716C74.9969 81.238 74.6879 81.1712 74.3594 81.1712C74.0253 81.1712 73.7163 81.238 73.4323 81.3716C73.1484 81.4997 72.9006 81.6806 72.689 81.9145C72.483 82.1483 72.3188 82.4295 72.1963 82.758C72.0794 83.0809 72.0209 83.4373 72.0209 83.827ZM81.3934 80.9039H82.5542L82.1032 81.522H81.076C80.7642 81.522 80.4775 81.5387 80.2158 81.5721C79.9597 81.5999 79.7175 81.7001 79.4892 81.8727C79.2888 82.0286 79.1273 82.2597 79.0048 82.5659C78.8823 82.8666 78.8211 83.1923 78.8211 83.543V83.5848H78.8545C78.9157 83.4456 78.9992 83.3092 79.105 83.1756C79.2108 83.042 79.3389 82.925 79.4892 82.8248C79.6395 82.719 79.8149 82.6355 80.0153 82.5743C80.2158 82.513 80.4441 82.4824 80.7002 82.4824C81.0676 82.4824 81.3822 82.5464 81.6439 82.6745C81.9056 82.797 82.1199 82.9584 82.287 83.1589C82.454 83.3593 82.5765 83.5904 82.6544 83.8521C82.738 84.1082 82.7797 84.3699 82.7797 84.6371C82.7797 84.9044 82.7407 85.1688 82.6628 85.4305C82.5849 85.6922 82.4624 85.9288 82.2953 86.1404C82.1283 86.352 81.9112 86.5246 81.6439 86.6582C81.3822 86.7863 81.0649 86.8503 80.6918 86.8503C80.213 86.8503 79.8233 86.7695 79.5226 86.6081C79.2275 86.4411 78.9992 86.2378 78.8378 85.9984C78.6763 85.759 78.5677 85.5057 78.5121 85.2384C78.4564 84.9656 78.4285 84.7234 78.4285 84.5118V84.2863C78.4285 84.1137 78.4313 83.93 78.4369 83.7351C78.4425 83.5347 78.4592 83.3343 78.487 83.1338C78.5148 82.9278 78.5594 82.7218 78.6206 82.5158C78.6819 82.3098 78.7682 82.1149 78.8795 81.9312C79.0299 81.6806 79.1997 81.4858 79.389 81.3466C79.5838 81.2074 79.7899 81.1044 80.007 81.0376C80.2241 80.9708 80.4496 80.9318 80.6835 80.9206C80.9173 80.9095 81.1539 80.9039 81.3934 80.9039ZM79.2219 84.6872C79.2219 85.0603 79.2693 85.3665 79.3639 85.6059C79.4641 85.8397 79.5866 86.0263 79.7314 86.1654C79.8817 86.2991 80.0432 86.3909 80.2158 86.4411C80.3884 86.4912 80.5471 86.5162 80.6918 86.5162C80.8032 86.5162 80.934 86.4939 81.0843 86.4494C81.2347 86.3993 81.3767 86.3102 81.5103 86.1822C81.6439 86.0485 81.7553 85.862 81.8443 85.6226C81.939 85.3832 81.9863 85.0714 81.9863 84.6872C81.9863 84.2251 81.9279 83.8688 81.8109 83.6182C81.694 83.3621 81.5576 83.1756 81.4017 83.0587C81.2458 82.9417 81.0899 82.8721 80.934 82.8499C80.7781 82.8276 80.6584 82.8165 80.5749 82.8165C80.38 82.8165 80.1991 82.8527 80.032 82.925C79.8706 82.9974 79.7286 83.1116 79.6061 83.2674C79.4836 83.4178 79.389 83.6126 79.3222 83.8521C79.2554 84.0859 79.2219 84.3643 79.2219 84.6872ZM84.7598 86.7501V82.9H83.8913V83.4595H83.2816V82.5826H85.4781V84.4701H86.5304C86.6473 84.4701 86.7976 84.4784 86.9814 84.4951C87.1707 84.5063 87.3544 84.5508 87.5326 84.6288C87.7107 84.7011 87.8638 84.8153 87.9919 84.9712C88.12 85.1215 88.184 85.3386 88.184 85.6226C88.184 85.9455 88.0671 86.2156 87.8332 86.4327C87.6049 86.6443 87.2876 86.7501 86.8811 86.7501H84.7598ZM85.4781 86.4327H86.5554C86.6668 86.4327 86.7642 86.4188 86.8477 86.3909C86.9368 86.3631 87.0092 86.3325 87.0649 86.2991C87.1261 86.2601 87.1762 86.2211 87.2152 86.1822C87.2542 86.1376 87.2848 86.0986 87.3071 86.0652C87.3516 85.9928 87.3794 85.9149 87.3906 85.8314C87.4073 85.7423 87.4156 85.6504 87.4156 85.5558C87.4156 85.3776 87.3794 85.2356 87.3071 85.1299C87.2403 85.0241 87.1567 84.9433 87.0565 84.8877C86.9563 84.832 86.8477 84.7958 86.7308 84.7791C86.6139 84.7624 86.5109 84.754 86.4218 84.754H85.4781V86.4327ZM92.9817 84.8459H89.808C89.808 85.1855 89.8582 85.4639 89.9584 85.6811C90.0586 85.8982 90.1839 86.068 90.3342 86.1905C90.4845 86.313 90.646 86.3993 90.8186 86.4494C90.9968 86.4939 91.1638 86.5162 91.3197 86.5162C91.4589 86.5162 91.5842 86.5023 91.6955 86.4745C91.8124 86.4411 91.9238 86.3965 92.0296 86.3408C92.1354 86.2852 92.2384 86.2156 92.3386 86.132C92.4444 86.0485 92.5557 85.9567 92.6726 85.8564L92.9399 86.1237C92.7172 86.3575 92.4555 86.5385 92.1548 86.6665C91.8542 86.789 91.5257 86.8503 91.1694 86.8503C90.8019 86.8503 90.4817 86.789 90.2089 86.6665C89.9417 86.5385 89.719 86.3715 89.5408 86.1654C89.3682 85.9539 89.2374 85.7172 89.1483 85.4556C89.0648 85.1883 89.023 84.9155 89.023 84.6371C89.023 84.303 89.0731 84.0052 89.1733 83.7435C89.2735 83.4762 89.4127 83.2507 89.5909 83.067C89.7691 82.8777 89.9779 82.7357 90.2173 82.6411C90.4567 82.5409 90.7184 82.4907 91.0023 82.4907C91.2696 82.4907 91.5229 82.5353 91.7623 82.6244C92.0017 82.7135 92.2105 82.8471 92.3887 83.0253C92.5724 83.2034 92.7172 83.4289 92.823 83.7017C92.9288 83.9745 92.9817 84.2975 92.9817 84.6705V84.8459ZM89.808 84.5118H92.2551C92.2551 83.9718 92.1437 83.5486 91.921 83.2424C91.7039 82.9306 91.3976 82.7747 91.0023 82.7747C90.7963 82.7747 90.6181 82.8248 90.4678 82.925C90.3175 83.0197 90.1922 83.1477 90.092 83.3092C89.9973 83.4707 89.925 83.6572 89.8749 83.8688C89.8303 84.0748 89.808 84.2891 89.808 84.5118ZM97.7522 86.416H98.3285V87.627H97.7439V86.7501H94.0692V87.627H93.4846V86.416H94.0859L95.6476 82.5743H96.1487L97.7522 86.416ZM95.7061 83.4011L94.4784 86.416H97.0006L95.7562 83.4011H95.7061ZM99.7868 86.2573L101.916 82.5743H102.752V86.7501H102.042V83.0921L99.912 86.7501H99.0769V82.5743H99.7868V86.2573ZM104.794 84.754V86.7501H104.085V82.5743H104.794V84.4701H106.907V82.5743H107.617V86.7501H106.907V84.754H104.794ZM112.662 84.8459H109.488C109.488 85.1855 109.538 85.4639 109.638 85.6811C109.739 85.8982 109.864 86.068 110.014 86.1905C110.165 86.313 110.326 86.3993 110.499 86.4494C110.677 86.4939 110.844 86.5162 111 86.5162C111.139 86.5162 111.264 86.5023 111.376 86.4745C111.492 86.4411 111.604 86.3965 111.71 86.3408C111.815 86.2852 111.918 86.2156 112.019 86.132C112.124 86.0485 112.236 85.9567 112.353 85.8564L112.62 86.1237C112.397 86.3575 112.136 86.5385 111.835 86.6665C111.534 86.789 111.206 86.8503 110.849 86.8503C110.482 86.8503 110.162 86.789 109.889 86.6665C109.622 86.5385 109.399 86.3715 109.221 86.1654C109.048 85.9539 108.917 85.7172 108.828 85.4556C108.745 85.1883 108.703 84.9155 108.703 84.6371C108.703 84.303 108.753 84.0052 108.853 83.7435C108.954 83.4762 109.093 83.2507 109.271 83.067C109.449 82.8777 109.658 82.7357 109.897 82.6411C110.137 82.5409 110.398 82.4907 110.682 82.4907C110.95 82.4907 111.203 82.5353 111.442 82.6244C111.682 82.7135 111.891 82.8471 112.069 83.0253C112.252 83.2034 112.397 83.4289 112.503 83.7017C112.609 83.9745 112.662 84.2975 112.662 84.6705V84.8459ZM109.488 84.5118H111.935C111.935 83.9718 111.824 83.5486 111.601 83.2424C111.384 82.9306 111.078 82.7747 110.682 82.7747C110.476 82.7747 110.298 82.8248 110.148 82.925C109.998 83.0197 109.872 83.1477 109.772 83.3092C109.677 83.4707 109.605 83.6572 109.555 83.8688C109.51 84.0748 109.488 84.2891 109.488 84.5118ZM114.459 84.754V86.7501H113.749V82.5743H114.459V84.4701H116.572V82.5743H117.282V86.7501H116.572V84.754H114.459ZM119.328 86.2573L121.458 82.5743H122.293V86.7501H121.583V83.0921L119.453 86.7501H118.618V82.5743H119.328V86.2573ZM127.334 84.8459H124.16C124.16 85.1855 124.211 85.4639 124.311 85.6811C124.411 85.8982 124.536 86.068 124.687 86.1905C124.837 86.313 124.998 86.3993 125.171 86.4494C125.349 86.4939 125.516 86.5162 125.672 86.5162C125.811 86.5162 125.937 86.5023 126.048 86.4745C126.165 86.4411 126.276 86.3965 126.382 86.3408C126.488 86.2852 126.591 86.2156 126.691 86.132C126.797 86.0485 126.908 85.9567 127.025 85.8564L127.292 86.1237C127.07 86.3575 126.808 86.5385 126.507 86.6665C126.207 86.789 125.878 86.8503 125.522 86.8503C125.154 86.8503 124.834 86.789 124.561 86.6665C124.294 86.5385 124.071 86.3715 123.893 86.1654C123.721 85.9539 123.59 85.7172 123.501 85.4556C123.417 85.1883 123.375 84.9155 123.375 84.6371C123.375 84.303 123.426 84.0052 123.526 83.7435C123.626 83.4762 123.765 83.2507 123.943 83.067C124.122 82.8777 124.33 82.7357 124.57 82.6411C124.809 82.5409 125.071 82.4907 125.355 82.4907C125.622 82.4907 125.875 82.5353 126.115 82.6244C126.354 82.7135 126.563 82.8471 126.741 83.0253C126.925 83.2034 127.07 83.4289 127.175 83.7017C127.281 83.9745 127.334 84.2975 127.334 84.6705V84.8459ZM124.16 84.5118H126.608C126.608 83.9718 126.496 83.5486 126.273 83.2424C126.056 82.9306 125.75 82.7747 125.355 82.7747C125.149 82.7747 124.971 82.8248 124.82 82.925C124.67 83.0197 124.545 83.1477 124.444 83.3092C124.35 83.4707 124.277 83.6572 124.227 83.8688C124.183 84.0748 124.16 84.2891 124.16 84.5118ZM133.839 86.7501H133.079V81.3633H130.84V80.9039H136.077V81.3633H133.839V86.7501ZM140.987 84.6705C140.987 84.96 140.937 85.2384 140.837 85.5057C140.737 85.7674 140.592 85.9984 140.403 86.1989C140.219 86.3993 139.994 86.558 139.726 86.6749C139.465 86.7918 139.17 86.8503 138.841 86.8503C138.507 86.8503 138.204 86.7918 137.931 86.6749C137.664 86.5524 137.435 86.3909 137.246 86.1905C137.062 85.9901 136.917 85.759 136.812 85.4973C136.711 85.2301 136.661 84.9545 136.661 84.6705C136.661 84.381 136.711 84.1054 136.812 83.8437C136.917 83.5765 137.062 83.3426 137.246 83.1422C137.435 82.9417 137.664 82.7831 137.931 82.6661C138.204 82.5436 138.507 82.4824 138.841 82.4824C139.17 82.4824 139.465 82.5436 139.726 82.6661C139.994 82.7831 140.219 82.9417 140.403 83.1422C140.592 83.3426 140.737 83.5765 140.837 83.8437C140.937 84.1054 140.987 84.381 140.987 84.6705ZM140.194 84.6705C140.194 84.2808 140.152 83.9662 140.069 83.7268C139.985 83.4818 139.877 83.2925 139.743 83.1589C139.609 83.0253 139.462 82.9362 139.3 82.8916C139.139 82.8415 138.983 82.8165 138.833 82.8165C138.682 82.8165 138.527 82.8415 138.365 82.8916C138.204 82.9362 138.053 83.0253 137.914 83.1589C137.78 83.2925 137.669 83.4818 137.58 83.7268C137.496 83.9662 137.455 84.2808 137.455 84.6705C137.455 85.0547 137.496 85.3693 137.58 85.6142C137.669 85.8537 137.78 86.0402 137.914 86.1738C138.053 86.3074 138.204 86.3993 138.365 86.4494C138.527 86.4939 138.682 86.5162 138.833 86.5162C138.983 86.5162 139.139 86.4939 139.3 86.4494C139.462 86.3993 139.609 86.3074 139.743 86.1738C139.877 86.0402 139.985 85.8537 140.069 85.6142C140.152 85.3693 140.194 85.0547 140.194 84.6705ZM142.075 88.838V82.5743H142.784V83.2507H142.818C143.024 82.7385 143.458 82.4824 144.121 82.4824C144.399 82.4824 144.655 82.5353 144.889 82.6411C145.123 82.7413 145.323 82.8888 145.49 83.0837C145.663 83.273 145.797 83.5013 145.891 83.7685C145.986 84.0358 146.033 84.3365 146.033 84.6705C146.033 84.999 145.986 85.2997 145.891 85.5725C145.797 85.8397 145.663 86.068 145.49 86.2573C145.323 86.4466 145.123 86.5942 144.889 86.7C144.655 86.8002 144.399 86.8503 144.121 86.8503C143.987 86.8503 143.853 86.8364 143.72 86.8085C143.592 86.7807 143.469 86.7361 143.352 86.6749C143.235 86.6137 143.13 86.5329 143.035 86.4327C142.946 86.3325 142.873 86.21 142.818 86.0652H142.784V88.838H142.075ZM142.784 84.2446V84.9712C142.784 85.1994 142.815 85.4027 142.876 85.5808C142.943 85.759 143.029 85.9121 143.135 86.0402C143.241 86.1627 143.363 86.2573 143.503 86.3241C143.642 86.3854 143.789 86.416 143.945 86.416C144.118 86.416 144.282 86.3854 144.438 86.3241C144.594 86.2573 144.73 86.1543 144.847 86.0151C144.97 85.8704 145.064 85.6866 145.131 85.4639C145.204 85.2412 145.24 84.9712 145.24 84.6538C145.24 84.342 145.204 84.0748 145.131 83.8521C145.064 83.6293 144.973 83.4484 144.856 83.3092C144.739 83.17 144.599 83.0698 144.438 83.0085C144.282 82.9417 144.118 82.9083 143.945 82.9083C143.784 82.9083 143.631 82.9445 143.486 83.0169C143.347 83.0837 143.224 83.1784 143.118 83.3009C143.013 83.4178 142.929 83.5598 142.868 83.7268C142.812 83.8882 142.784 84.0608 142.784 84.2446ZM149.854 82.9083H147.825V86.7501H147.115V82.5743H149.854V82.9083ZM154.681 84.6705C154.681 84.96 154.631 85.2384 154.531 85.5057C154.431 85.7674 154.286 85.9984 154.097 86.1989C153.913 86.3993 153.687 86.558 153.42 86.6749C153.158 86.7918 152.863 86.8503 152.535 86.8503C152.201 86.8503 151.897 86.7918 151.624 86.6749C151.357 86.5524 151.129 86.3909 150.94 86.1905C150.756 85.9901 150.611 85.759 150.505 85.4973C150.405 85.2301 150.355 84.9545 150.355 84.6705C150.355 84.381 150.405 84.1054 150.505 83.8437C150.611 83.5765 150.756 83.3426 150.94 83.1422C151.129 82.9417 151.357 82.7831 151.624 82.6661C151.897 82.5436 152.201 82.4824 152.535 82.4824C152.863 82.4824 153.158 82.5436 153.42 82.6661C153.687 82.7831 153.913 82.9417 154.097 83.1422C154.286 83.3426 154.431 83.5765 154.531 83.8437C154.631 84.1054 154.681 84.381 154.681 84.6705ZM153.888 84.6705C153.888 84.2808 153.846 83.9662 153.762 83.7268C153.679 83.4818 153.57 83.2925 153.437 83.1589C153.303 83.0253 153.156 82.9362 152.994 82.8916C152.833 82.8415 152.677 82.8165 152.526 82.8165C152.376 82.8165 152.22 82.8415 152.059 82.8916C151.897 82.9362 151.747 83.0253 151.608 83.1589C151.474 83.2925 151.363 83.4818 151.274 83.7268C151.19 83.9662 151.148 84.2808 151.148 84.6705C151.148 85.0547 151.19 85.3693 151.274 85.6142C151.363 85.8537 151.474 86.0402 151.608 86.1738C151.747 86.3074 151.897 86.3993 152.059 86.4494C152.22 86.4939 152.376 86.5162 152.526 86.5162C152.677 86.5162 152.833 86.4939 152.994 86.4494C153.156 86.3993 153.303 86.3074 153.437 86.1738C153.57 86.0402 153.679 85.8537 153.762 85.6142C153.846 85.3693 153.888 85.0547 153.888 84.6705ZM155.768 82.5743H157.514C157.814 82.5743 158.054 82.6105 158.232 82.6828C158.416 82.7552 158.555 82.8443 158.65 82.9501C158.744 83.0503 158.805 83.1561 158.833 83.2674C158.861 83.3788 158.875 83.4735 158.875 83.5514C158.875 83.6906 158.847 83.8159 158.791 83.9272C158.741 84.033 158.672 84.1277 158.583 84.2112C158.499 84.2891 158.402 84.3532 158.29 84.4033C158.179 84.4478 158.068 84.4812 157.956 84.5035V84.5619C158.073 84.5675 158.201 84.587 158.341 84.6204C158.485 84.6538 158.619 84.7123 158.741 84.7958C158.869 84.8737 158.975 84.9823 159.059 85.1215C159.142 85.2607 159.184 85.4361 159.184 85.6477C159.184 85.7868 159.156 85.9233 159.1 86.0569C159.045 86.1849 158.956 86.3019 158.833 86.4076C158.711 86.5079 158.552 86.5914 158.357 86.6582C158.162 86.7194 157.928 86.7501 157.656 86.7501H155.768V82.5743ZM156.478 86.416H157.347C157.402 86.416 157.489 86.4132 157.606 86.4076C157.728 86.3965 157.848 86.3659 157.965 86.3158C158.087 86.2657 158.193 86.1877 158.282 86.0819C158.371 85.9706 158.416 85.8147 158.416 85.6142C158.416 85.4082 158.368 85.2468 158.274 85.1299C158.185 85.0129 158.076 84.9266 157.948 84.871C157.82 84.8153 157.686 84.7819 157.547 84.7707C157.413 84.7596 157.302 84.754 157.213 84.754H156.478V86.416ZM156.478 84.4701H157.205C157.333 84.4701 157.455 84.4534 157.572 84.42C157.689 84.381 157.792 84.3281 157.881 84.2613C157.97 84.1889 158.04 84.1054 158.09 84.0107C158.146 83.9105 158.173 83.7964 158.173 83.6683C158.173 83.6015 158.162 83.5263 158.14 83.4428C158.123 83.3537 158.084 83.2702 158.023 83.1923C157.962 83.1143 157.873 83.0475 157.756 82.9918C157.645 82.9362 157.494 82.9083 157.305 82.9083H156.478V84.4701ZM160.27 82.5743H160.98V84.4701H161.982C162.116 84.4701 162.28 84.4784 162.475 84.4951C162.67 84.5118 162.856 84.5592 163.035 84.6371C163.213 84.7095 163.363 84.8236 163.486 84.9795C163.614 85.1354 163.678 85.3553 163.678 85.6393C163.678 85.8119 163.641 85.9678 163.569 86.107C163.502 86.2406 163.413 86.3575 163.302 86.4578C163.191 86.5524 163.06 86.6248 162.909 86.6749C162.765 86.725 162.617 86.7501 162.467 86.7501H160.27V82.5743ZM164.555 82.5743H165.264V86.7501H164.555V82.5743ZM160.98 86.4327H162.091C162.308 86.4327 162.497 86.3687 162.659 86.2406C162.826 86.107 162.909 85.9093 162.909 85.6477C162.909 85.4305 162.868 85.2635 162.784 85.1466C162.701 85.0241 162.603 84.935 162.492 84.8793C162.386 84.8181 162.28 84.7819 162.174 84.7707C162.069 84.7596 161.991 84.754 161.941 84.754H160.98V86.4327ZM167.986 85.0213L166.683 86.7501H166.19L167.743 84.6956L166.182 82.5743H167.025L168.169 84.136L169.33 82.5743H169.815L168.411 84.4617L170.115 86.7501H169.263L167.986 85.0213ZM47.0294 91.8037C47.4525 91.8037 47.8478 91.8678 48.2153 91.9958C48.5883 92.1239 48.9113 92.3132 49.1841 92.5637C49.4625 92.8087 49.6796 93.1149 49.8355 93.4824C49.997 93.8443 50.0777 94.2619 50.0777 94.7351C50.0777 94.9523 50.0526 95.1806 50.0025 95.42C49.9524 95.6594 49.8717 95.8932 49.7603 96.1215C49.6545 96.3498 49.5181 96.5697 49.3511 96.7813C49.1841 96.9928 48.9864 97.1766 48.7581 97.3325C48.5299 97.4884 48.2682 97.6137 47.9731 97.7083C47.678 97.803 47.3467 97.8503 46.9793 97.8503C46.7287 97.8503 46.4782 97.828 46.2276 97.7835C45.9826 97.7389 45.746 97.6693 45.5177 97.5747C45.295 97.48 45.0862 97.3603 44.8914 97.2156C44.6965 97.0708 44.5295 96.8982 44.3903 96.6978L44.8162 96.2885C44.922 96.4556 45.0445 96.6115 45.1837 96.7562C45.3284 96.901 45.4871 97.029 45.6597 97.1404C45.8379 97.2462 46.03 97.3297 46.236 97.3909C46.4475 97.4522 46.6758 97.4828 46.9208 97.4828C47.2883 97.4828 47.614 97.4104 47.8979 97.2657C48.1874 97.1209 48.4296 96.9288 48.6245 96.6894C48.825 96.4444 48.9781 96.166 49.0839 95.8542C49.1896 95.5369 49.2425 95.2112 49.2425 94.8771V94.8354H46.4615V94.4595H49.2425V94.4261C49.2425 94.1589 49.1952 93.8916 49.1006 93.6244C49.0059 93.3571 48.8611 93.1149 48.6663 92.8978C48.477 92.6806 48.2403 92.5053 47.9564 92.3716C47.6724 92.238 47.3384 92.1712 46.9542 92.1712C46.7092 92.1712 46.4782 92.2018 46.261 92.2631C46.0494 92.3243 45.8546 92.4106 45.6764 92.522C45.4982 92.6278 45.3368 92.753 45.192 92.8978C45.0472 93.0425 44.922 93.1984 44.8162 93.3655L44.3903 92.9562C44.6742 92.5554 45.0472 92.2631 45.5094 92.0793C45.9771 91.8956 46.4837 91.8037 47.0294 91.8037ZM53.6479 93.5743L55.3432 97.7501H54.5916L53.2553 94.4011H53.2052L52.2448 96.8147C52.1669 97.0151 52.0917 97.1822 52.0193 97.3158C51.9525 97.4438 51.8829 97.5496 51.8105 97.6331C51.7381 97.7111 51.6602 97.764 51.5767 97.7918C51.4932 97.8252 51.3985 97.8419 51.2927 97.8419C51.0589 97.8419 50.8779 97.7807 50.7499 97.6582L50.8835 97.2156C50.9336 97.2601 51.0004 97.3046 51.0839 97.3492C51.1674 97.3937 51.2482 97.416 51.3261 97.416C51.3929 97.416 51.4542 97.3937 51.5099 97.3492C51.5711 97.2991 51.624 97.2378 51.6685 97.1654C51.7131 97.0931 51.7521 97.0179 51.7855 96.94C51.8189 96.8564 51.8495 96.7841 51.8773 96.7228L53.1468 93.5743H53.6479ZM59.8852 95.8459H56.7116C56.7116 96.1855 56.7617 96.4639 56.8619 96.6811C56.9621 96.8982 57.0874 97.068 57.2377 97.1905C57.3881 97.313 57.5495 97.3993 57.7221 97.4494C57.9003 97.4939 58.0673 97.5162 58.2232 97.5162C58.3624 97.5162 58.4877 97.5023 58.5991 97.4745C58.716 97.4411 58.8273 97.3965 58.9331 97.3408C59.0389 97.2852 59.1419 97.2156 59.2421 97.132C59.3479 97.0485 59.4593 96.9567 59.5762 96.8564L59.8434 97.1237C59.6207 97.3575 59.3591 97.5385 59.0584 97.6665C58.7577 97.789 58.4292 97.8503 58.0729 97.8503C57.7054 97.8503 57.3853 97.789 57.1125 97.6665C56.8452 97.5385 56.6225 97.3715 56.4443 97.1654C56.2717 96.9539 56.1409 96.7172 56.0518 96.4556C55.9683 96.1883 55.9265 95.9155 55.9265 95.6371C55.9265 95.303 55.9767 95.0052 56.0769 94.7435C56.1771 94.4762 56.3163 94.2507 56.4945 94.067C56.6726 93.8777 56.8814 93.7357 57.1208 93.6411C57.3602 93.5409 57.6219 93.4907 57.9059 93.4907C58.1731 93.4907 58.4265 93.5353 58.6659 93.6244C58.9053 93.7135 59.1141 93.8471 59.2922 94.0253C59.476 94.2034 59.6207 94.4289 59.7265 94.7017C59.8323 94.9745 59.8852 95.2975 59.8852 95.6705V95.8459ZM56.7116 95.5118H59.1586C59.1586 94.9718 59.0473 94.5486 58.8246 94.2424C58.6074 93.9306 58.3012 93.7747 57.9059 93.7747C57.6999 93.7747 57.5217 93.8248 57.3714 93.925C57.221 94.0197 57.0958 94.1477 56.9956 94.3092C56.9009 94.4707 56.8285 94.6572 56.7784 94.8688C56.7339 95.0748 56.7116 95.2891 56.7116 95.5118ZM61.6826 95.729L63.7538 93.5743H64.28L62.5846 95.3448L63.6787 96.7729C63.7343 96.8453 63.7956 96.9205 63.8624 96.9984C63.9348 97.0708 64.0072 97.1404 64.0795 97.2072C64.1575 97.2685 64.2326 97.3186 64.305 97.3575C64.3774 97.3965 64.447 97.416 64.5138 97.416H64.7477V97.7501C64.6753 97.7723 64.5918 97.7946 64.4971 97.8169C64.4025 97.8391 64.305 97.8503 64.2048 97.8503C64.0935 97.8503 63.9877 97.8308 63.8874 97.7918C63.7928 97.7528 63.7037 97.7 63.6202 97.6331C63.5367 97.5663 63.4587 97.4912 63.3863 97.4076C63.314 97.3241 63.2444 97.2406 63.1776 97.1571L62.142 95.7958L61.6826 96.2802V97.7501H60.9727V93.5743H61.6826V95.729ZM66.75 97.7501V93.9083H65.0797V93.5743H69.1302V93.9083H67.4599V97.7501H66.75ZM69.9686 99.838V93.5743H70.6785V94.2507H70.7119C70.9179 93.7385 71.3522 93.4824 72.0148 93.4824C72.2932 93.4824 72.5493 93.5353 72.7831 93.6411C73.017 93.7413 73.2174 93.8888 73.3844 94.0837C73.557 94.273 73.6907 94.5013 73.7853 94.7685C73.88 95.0358 73.9273 95.3365 73.9273 95.6705C73.9273 95.999 73.88 96.2997 73.7853 96.5725C73.6907 96.8397 73.557 97.068 73.3844 97.2573C73.2174 97.4466 73.017 97.5942 72.7831 97.7C72.5493 97.8002 72.2932 97.8503 72.0148 97.8503C71.8812 97.8503 71.7475 97.8364 71.6139 97.8085C71.4858 97.7807 71.3634 97.7361 71.2464 97.6749C71.1295 97.6137 71.0237 97.5329 70.9291 97.4327C70.84 97.3325 70.7676 97.21 70.7119 97.0652H70.6785V99.838H69.9686ZM70.6785 95.2446V95.9712C70.6785 96.1994 70.7091 96.4027 70.7704 96.5808C70.8372 96.759 70.9235 96.9121 71.0293 97.0402C71.1351 97.1627 71.2576 97.2573 71.3968 97.3241C71.536 97.3854 71.6835 97.416 71.8394 97.416C72.012 97.416 72.1762 97.3854 72.3321 97.3241C72.488 97.2573 72.6244 97.1543 72.7414 97.0151C72.8639 96.8704 72.9585 96.6866 73.0253 96.4639C73.0977 96.2412 73.1339 95.9712 73.1339 95.6538C73.1339 95.342 73.0977 95.0748 73.0253 94.8521C72.9585 94.6293 72.8666 94.4484 72.7497 94.3092C72.6328 94.17 72.4936 94.0698 72.3321 94.0085C72.1762 93.9417 72.012 93.9083 71.8394 93.9083C71.6779 93.9083 71.5248 93.9445 71.3801 94.0169C71.2409 94.0837 71.1184 94.1784 71.0126 94.3009C70.9068 94.4178 70.8233 94.5598 70.762 94.7268C70.7064 94.8882 70.6785 95.0608 70.6785 95.2446ZM79.0845 95.6705C79.0845 95.96 79.0344 96.2384 78.9342 96.5057C78.834 96.7674 78.6892 96.9984 78.4999 97.1989C78.3162 97.3993 78.0907 97.558 77.8235 97.6749C77.5618 97.7918 77.2667 97.8503 76.9382 97.8503C76.6041 97.8503 76.3007 97.7918 76.0279 97.6749C75.7606 97.5524 75.5323 97.3909 75.343 97.1905C75.1593 96.9901 75.0145 96.759 74.9087 96.4973C74.8085 96.2301 74.7584 95.9545 74.7584 95.6705C74.7584 95.381 74.8085 95.1054 74.9087 94.8437C75.0145 94.5765 75.1593 94.3426 75.343 94.1422C75.5323 93.9417 75.7606 93.7831 76.0279 93.6661C76.3007 93.5436 76.6041 93.4824 76.9382 93.4824C77.2667 93.4824 77.5618 93.5436 77.8235 93.6661C78.0907 93.7831 78.3162 93.9417 78.4999 94.1422C78.6892 94.3426 78.834 94.5765 78.9342 94.8437C79.0344 95.1054 79.0845 95.381 79.0845 95.6705ZM78.2911 95.6705C78.2911 95.2808 78.2494 94.9662 78.1659 94.7268C78.0823 94.4818 77.9738 94.2925 77.8402 94.1589C77.7065 94.0253 77.559 93.9362 77.3975 93.8916C77.2361 93.8415 77.0802 93.8165 76.9298 93.8165C76.7795 93.8165 76.6236 93.8415 76.4621 93.8916C76.3007 93.9362 76.1503 94.0253 76.0112 94.1589C75.8775 94.2925 75.7662 94.4818 75.6771 94.7268C75.5936 94.9662 75.5518 95.2808 75.5518 95.6705C75.5518 96.0547 75.5936 96.3693 75.6771 96.6142C75.7662 96.8537 75.8775 97.0402 76.0112 97.1738C76.1503 97.3074 76.3007 97.3993 76.4621 97.4494C76.6236 97.4939 76.7795 97.5162 76.9298 97.5162C77.0802 97.5162 77.2361 97.4939 77.3975 97.4494C77.559 97.3993 77.7065 97.3074 77.8402 97.1738C77.9738 97.0402 78.0823 96.8537 78.1659 96.6142C78.2494 96.3693 78.2911 96.0547 78.2911 95.6705ZM80.8815 95.754V97.7501H80.1716V93.5743H80.8815V95.4701H82.9945V93.5743H83.7043V97.7501H82.9945V95.754H80.8815ZM85.7505 95.754V97.7501H85.0407V93.5743H85.7505V95.4701H87.8635V93.5743H88.5734V97.7501H87.8635V95.754H85.7505ZM89.9097 93.5743H90.6196V95.4701H91.6218C91.7554 95.4701 91.9197 95.4784 92.1145 95.4951C92.3094 95.5118 92.4959 95.5592 92.6741 95.6371C92.8522 95.7095 93.0026 95.8236 93.1251 95.9795C93.2531 96.1354 93.3172 96.3553 93.3172 96.6393C93.3172 96.8119 93.281 96.9678 93.2086 97.107C93.1418 97.2406 93.0527 97.3575 92.9413 97.4578C92.83 97.5524 92.6991 97.6248 92.5488 97.6749C92.404 97.725 92.2565 97.7501 92.1062 97.7501H89.9097V93.5743ZM94.1941 93.5743H94.904V97.7501H94.1941V93.5743ZM90.6196 97.4327H91.7304C91.9475 97.4327 92.1368 97.3687 92.2983 97.2406C92.4653 97.107 92.5488 96.9093 92.5488 96.6477C92.5488 96.4305 92.5071 96.2635 92.4235 96.1466C92.34 96.0241 92.2426 95.935 92.1312 95.8793C92.0254 95.8181 91.9197 95.7819 91.8139 95.7707C91.7081 95.7596 91.6301 95.754 91.58 95.754H90.6196V97.4327ZM97.625 96.0213L96.3222 97.7501H95.8294L97.3828 95.6956L95.8211 93.5743H96.6646L97.8087 95.136L98.9696 93.5743H99.454L98.0509 95.4617L99.7547 97.7501H98.9028L97.625 96.0213ZM108.949 96.6727L109.199 96.8982C109.127 96.9817 109.021 97.0791 108.882 97.1905C108.743 97.3019 108.567 97.4076 108.356 97.5079C108.15 97.6025 107.905 97.6832 107.621 97.7501C107.342 97.8169 107.025 97.8503 106.669 97.8503C106.106 97.8503 105.622 97.764 105.215 97.5914C104.809 97.4132 104.475 97.1822 104.213 96.8982C103.952 96.6087 103.757 96.2802 103.629 95.9127C103.506 95.5397 103.445 95.1583 103.445 94.7685C103.445 94.3176 103.523 93.9111 103.679 93.5492C103.835 93.1817 104.055 92.8699 104.339 92.6138C104.622 92.3521 104.962 92.1517 105.357 92.0125C105.758 91.8733 106.201 91.8037 106.685 91.8037C107.019 91.8037 107.317 91.8371 107.579 91.9039C107.841 91.9708 108.069 92.0626 108.264 92.1795C108.459 92.2965 108.62 92.4357 108.748 92.5971C108.882 92.7586 108.99 92.934 109.074 93.1233H108.456C108.417 93.0064 108.347 92.8922 108.247 92.7809C108.152 92.6639 108.027 92.5609 107.871 92.4719C107.721 92.3828 107.546 92.3104 107.345 92.2547C107.15 92.199 106.933 92.1712 106.694 92.1712C106.343 92.1712 106.017 92.2352 105.717 92.3633C105.421 92.4913 105.165 92.6695 104.948 92.8978C104.731 93.1261 104.561 93.3989 104.439 93.7162C104.322 94.028 104.263 94.3732 104.263 94.7518C104.263 95.1082 104.319 95.4506 104.43 95.7791C104.547 96.1076 104.717 96.3971 104.94 96.6477C105.163 96.8982 105.441 97.0986 105.775 97.249C106.109 97.3993 106.493 97.4745 106.928 97.4745C107.707 97.4745 108.381 97.2072 108.949 96.6727ZM110.83 97.2573L112.959 93.5743H113.795V97.7501H113.085V94.0921L110.955 97.7501H110.12V93.5743H110.83V97.2573ZM117.224 97.416C117.452 97.416 117.661 97.3798 117.85 97.3074C118.045 97.2295 118.24 97.1098 118.435 96.9483L118.677 97.2657C118.488 97.4104 118.254 97.5441 117.975 97.6665C117.703 97.789 117.383 97.8503 117.015 97.8503C116.687 97.8503 116.391 97.7946 116.13 97.6832C115.868 97.5663 115.643 97.4104 115.453 97.2156C115.27 97.0151 115.128 96.7813 115.027 96.514C114.927 96.2412 114.877 95.9489 114.877 95.6371C114.877 95.342 114.922 95.0636 115.011 94.8019C115.105 94.5403 115.245 94.312 115.428 94.1171C115.612 93.9222 115.837 93.7691 116.105 93.6578C116.372 93.5409 116.681 93.4824 117.032 93.4824C117.199 93.4824 117.371 93.4991 117.55 93.5325C117.733 93.5603 117.903 93.616 118.059 93.6995C118.22 93.7775 118.362 93.8833 118.485 94.0169C118.607 94.145 118.697 94.3092 118.752 94.5096H118.176C118.115 94.3148 117.989 94.1505 117.8 94.0169C117.611 93.8833 117.388 93.8165 117.132 93.8165C116.976 93.8165 116.812 93.8499 116.639 93.9167C116.467 93.9779 116.308 94.0809 116.163 94.2257C116.024 94.3649 115.907 94.5542 115.812 94.7936C115.718 95.0274 115.67 95.3142 115.67 95.6538C115.67 95.9823 115.712 96.2607 115.796 96.489C115.885 96.7117 116.002 96.8926 116.146 97.0318C116.291 97.1654 116.456 97.2629 116.639 97.3241C116.829 97.3854 117.023 97.416 117.224 97.416ZM120.84 97.7501V93.9083H119.169V93.5743H123.22V93.9083H121.55V97.7501H120.84ZM127.766 95.8459H124.593C124.593 96.1855 124.643 96.4639 124.743 96.6811C124.843 96.8982 124.969 97.068 125.119 97.1905C125.269 97.313 125.431 97.3993 125.603 97.4494C125.781 97.4939 125.949 97.5162 126.104 97.5162C126.244 97.5162 126.369 97.5023 126.48 97.4745C126.597 97.4411 126.708 97.3965 126.814 97.3408C126.92 97.2852 127.023 97.2156 127.123 97.132C127.229 97.0485 127.34 96.9567 127.457 96.8564L127.725 97.1237C127.502 97.3575 127.24 97.5385 126.94 97.6665C126.639 97.789 126.31 97.8503 125.954 97.8503C125.587 97.8503 125.266 97.789 124.994 97.6665C124.726 97.5385 124.504 97.3715 124.326 97.1654C124.153 96.9539 124.022 96.7172 123.933 96.4556C123.849 96.1883 123.808 95.9155 123.808 95.6371C123.808 95.303 123.858 95.0052 123.958 94.7435C124.058 94.4762 124.197 94.2507 124.376 94.067C124.554 93.8777 124.763 93.7357 125.002 93.6411C125.241 93.5409 125.503 93.4907 125.787 93.4907C126.054 93.4907 126.308 93.5353 126.547 93.6244C126.786 93.7135 126.995 93.8471 127.173 94.0253C127.357 94.2034 127.502 94.4289 127.608 94.7017C127.713 94.9745 127.766 95.2975 127.766 95.6705V95.8459ZM124.593 95.5118H127.04C127.04 94.9718 126.928 94.5486 126.706 94.2424C126.489 93.9306 126.182 93.7747 125.787 93.7747C125.581 93.7747 125.403 93.8248 125.253 93.925C125.102 94.0197 124.977 94.1477 124.877 94.3092C124.782 94.4707 124.71 94.6572 124.66 94.8688C124.615 95.0748 124.593 95.2891 124.593 95.5118ZM129.514 93.5743L131.059 96.7646H131.1L132.554 93.5743H133.197V97.7501H132.487V94.4512H132.453L130.908 97.8503H130.825L129.171 94.4512H129.138V97.7501H128.854V93.5743H129.514Z" fill="#5F575B"/>
<path d="M89.0008 22.4704L101.921 6.10352e-05H76.0808L89.0008 22.4704ZM74.3434 10.0297L61.4233 32.5001H87.2634L74.3434 10.0297ZM103.658 10.0297L90.7382 32.5001H116.578L103.658 10.0297Z" fill="url(#paint0_linear_334_893)"/>
<defs>
<linearGradient id="paint0_linear_334_893" x1="66.4951" y1="32.5393" x2="116.67" y2="12.0289" gradientUnits="userSpaceOnUse">
<stop stop-color="#BA6FFB"/>
<stop offset="1" stop-color="#932DED"/>
</linearGradient>
</defs>
</svg>
