<svg width="151" height="70" viewBox="0 0 151 70" fill="none" xmlns="http://www.w3.org/2000/svg">
<path d="M7.89293 51.5642V64H4.64103V38.9854H7.89293V49.9203H22.866V38.9854H26.1179V64H22.866V51.5642H7.89293ZM34.6879 51.4927C34.6879 50.1347 34.938 48.6934 35.4383 47.1687C35.9625 45.644 36.7725 44.2504 37.8683 42.9877C38.9642 41.7012 40.3579 40.6411 42.0494 39.8073C43.7408 38.9735 45.7658 38.5565 48.1243 38.5565C50.5067 38.5565 52.5674 38.9854 54.3065 39.843C56.0695 40.6768 57.5227 41.737 58.6662 43.0234C59.8097 44.3099 60.6555 45.7155 61.2034 47.2402C61.7514 48.7411 62.0253 50.1586 62.0253 51.4927C62.0253 52.3742 61.8943 53.3033 61.6322 54.28C61.394 55.2568 61.0247 56.2336 60.5244 57.2103C60.048 58.1633 59.4286 59.0805 58.6662 59.9619C57.9039 60.8196 56.9986 61.5819 55.9503 62.249C54.9259 62.916 53.7586 63.4521 52.4483 63.8571C51.1618 64.2382 49.7205 64.4288 48.1243 64.4288C45.7658 64.4288 43.7408 64.0119 42.0494 63.1781C40.3579 62.3204 38.9642 61.2484 37.8683 59.9619C36.7725 58.6755 35.9625 57.2818 35.4383 55.7809C34.938 54.2562 34.6879 52.8268 34.6879 51.4927ZM38.1899 51.4927C38.1899 53.1603 38.4401 54.6969 38.9404 56.1025C39.4645 57.4843 40.1673 58.6755 41.0488 59.676C41.9541 60.6766 43.0142 61.4628 44.2292 62.0346C45.4442 62.5825 46.7664 62.8565 48.1958 62.8565C49.6014 62.8565 50.9236 62.5825 52.1624 62.0346C53.4251 61.4628 54.5209 60.6766 55.45 59.676C56.403 58.6755 57.1534 57.4843 57.7014 56.1025C58.2493 54.6969 58.5233 53.1603 58.5233 51.4927C58.5233 49.825 58.2493 48.3003 57.7014 46.9186C57.1534 45.513 56.403 44.3099 55.45 43.3093C54.5209 42.3087 53.4251 41.5345 52.1624 40.9865C50.9236 40.4148 49.6014 40.1289 48.1958 40.1289C46.7664 40.1289 45.4442 40.4148 44.2292 40.9865C43.0142 41.5345 41.9541 42.3087 41.0488 43.3093C40.1673 44.3099 39.4645 45.513 38.9404 46.9186C38.4401 48.3003 38.1899 49.825 38.1899 51.4927ZM79.8656 64H76.6136V40.9508H67.0366V38.9854H89.4426V40.9508H79.8656V64ZM105.023 38.5565C106.833 38.5565 108.525 38.8305 110.097 39.3785C111.693 39.9264 113.075 40.7364 114.243 41.8084C115.434 42.8567 116.363 44.167 117.03 45.7393C117.721 47.2878 118.066 49.0746 118.066 51.0996C118.066 52.0287 117.959 53.0055 117.745 54.0299C117.53 55.0543 117.185 56.0549 116.708 57.0316C116.256 58.0084 115.672 58.9494 114.957 59.8547C114.243 60.76 113.397 61.5462 112.42 62.2132C111.443 62.8803 110.324 63.4163 109.061 63.8213C107.798 64.2263 106.381 64.4288 104.808 64.4288C103.736 64.4288 102.664 64.3335 101.592 64.1429C100.544 63.9524 99.5315 63.6546 98.5548 63.2496C97.6018 62.8446 96.7085 62.3324 95.8746 61.7129C95.0408 61.0935 94.3261 60.355 93.7305 59.4974L95.553 57.7463C96.0057 58.461 96.5298 59.1281 97.1254 59.7475C97.7448 60.3669 98.4237 60.9149 99.1623 61.3913C99.9246 61.844 100.747 62.2013 101.628 62.4634C102.533 62.7254 103.51 62.8565 104.558 62.8565C106.131 62.8565 107.524 62.5468 108.739 61.9274C109.978 61.3079 111.014 60.486 111.848 59.4616C112.706 58.4134 113.361 57.2222 113.814 55.8881C114.266 54.5302 114.493 53.1365 114.493 51.7071V51.5284H102.593V49.9203H114.493V49.7774C114.493 48.6339 114.29 47.4903 113.885 46.3468C113.48 45.2033 112.861 44.167 112.027 43.2379C111.217 42.3087 110.204 41.5583 108.989 40.9865C107.774 40.4148 106.345 40.1289 104.701 40.1289C103.653 40.1289 102.664 40.2599 101.735 40.522C100.83 40.784 99.9961 41.1533 99.2337 41.6298C98.4714 42.0824 97.7805 42.6184 97.1611 43.2379C96.5417 43.8573 96.0057 44.5243 95.553 45.239L93.7305 43.488C94.9455 41.7727 96.5417 40.522 98.519 39.7358C100.52 38.9496 102.688 38.5565 105.023 38.5565ZM148.494 59.3902L149.566 60.355C149.256 60.7124 148.804 61.1293 148.208 61.6057C147.613 62.0822 146.862 62.5349 145.957 62.9637C145.075 63.3687 144.027 63.7141 142.812 64C141.621 64.2859 140.263 64.4288 138.738 64.4288C136.332 64.4288 134.26 64.0596 132.521 63.321C130.781 62.5587 129.352 61.57 128.232 60.355C127.113 59.1162 126.279 57.7106 125.731 56.1383C125.207 54.5421 124.945 52.9102 124.945 51.2425C124.945 49.3128 125.278 47.5737 125.945 46.0252C126.612 44.4529 127.553 43.1187 128.768 42.0229C129.983 40.9032 131.437 40.0455 133.128 39.4499C134.843 38.8543 136.737 38.5565 138.81 38.5565C140.239 38.5565 141.514 38.6995 142.634 38.9854C143.753 39.2712 144.73 39.6643 145.564 40.1646C146.398 40.6649 147.089 41.2605 147.636 41.9514C148.208 42.6423 148.673 43.3927 149.03 44.2027H146.386C146.219 43.7024 145.921 43.214 145.492 42.7376C145.087 42.2373 144.551 41.7965 143.884 41.4154C143.241 41.0342 142.491 40.7245 141.633 40.4862C140.799 40.248 139.87 40.1289 138.846 40.1289C137.345 40.1289 135.951 40.4029 134.665 40.9508C133.402 41.4987 132.306 42.2611 131.377 43.2379C130.448 44.2146 129.721 45.382 129.197 46.7399C128.697 48.074 128.447 49.5511 128.447 51.1711C128.447 52.6958 128.685 54.1609 129.161 55.5665C129.662 56.9721 130.388 58.2109 131.341 59.283C132.294 60.355 133.485 61.2127 134.915 61.8559C136.344 62.4991 137.988 62.8207 139.846 62.8207C143.182 62.8207 146.064 61.6772 148.494 59.3902Z" fill="#9A3AEF"/>
<path d="M75 19.3591L86.244 0H63.756L75 19.3591ZM62.244 8.6409L51 28H73.488L62.244 8.6409ZM87.756 8.6409L76.512 28H99L87.756 8.6409Z" fill="url(#paint0_linear_334_1196)"/>
<defs>
<linearGradient id="paint0_linear_334_1196" x1="55.4138" y1="28.0338" x2="98.9531" y2="10.0555" gradientUnits="userSpaceOnUse">
<stop stop-color="#BA6FFB"/>
<stop offset="1" stop-color="#932DED"/>
</linearGradient>
</defs>
</svg>
